<mxfile host="Electron" agent="Mozilla/5.0 (Windows NT 10.0; Win64; x64) AppleWebKit/537.36 (KHTML, like Gecko) draw.io/26.0.16 Chrome/132.0.6834.196 Electron/34.2.0 Safari/537.36" version="26.0.16">
  <diagram id="C5RBs43oDa-KdzZeNtuy" name="Page-1">
    <mxGraphModel dx="1290" dy="669" grid="1" gridSize="10" guides="1" tooltips="1" connect="1" arrows="1" fold="1" page="1" pageScale="1" pageWidth="827" pageHeight="1169" math="0" shadow="0">
      <root>
        <mxCell id="WIyWlLk6GJQsqaUBKTNV-0" />
        <mxCell id="WIyWlLk6GJQsqaUBKTNV-1" parent="WIyWlLk6GJQsqaUBKTNV-0" />
        <mxCell id="y8FSoUIwy3ZtjOL5Xxnj-0" value="Usuari" style="shape=umlActor;verticalLabelPosition=bottom;verticalAlign=top;html=1;outlineConnect=0;" parent="WIyWlLk6GJQsqaUBKTNV-1" vertex="1">
          <mxGeometry x="149" y="525" width="30" height="60" as="geometry" />
        </mxCell>
        <mxCell id="y8FSoUIwy3ZtjOL5Xxnj-1" value="" style="endArrow=classic;html=1;rounded=0;entryX=0;entryY=1;entryDx=0;entryDy=0;" parent="WIyWlLk6GJQsqaUBKTNV-1" target="y8FSoUIwy3ZtjOL5Xxnj-7" edge="1">
          <mxGeometry width="50" height="50" relative="1" as="geometry">
            <mxPoint x="209" y="555" as="sourcePoint" />
            <mxPoint x="289" y="420" as="targetPoint" />
          </mxGeometry>
        </mxCell>
        <mxCell id="y8FSoUIwy3ZtjOL5Xxnj-4" value="" style="endArrow=classic;html=1;rounded=0;entryX=0;entryY=0.5;entryDx=0;entryDy=0;" parent="WIyWlLk6GJQsqaUBKTNV-1" source="QDbhRXI9yqIW19a753yx-0" target="7RINz16O7kCzUExgoXn0-2" edge="1">
          <mxGeometry width="50" height="50" relative="1" as="geometry">
            <mxPoint x="209" y="560" as="sourcePoint" />
            <mxPoint x="353" y="560" as="targetPoint" />
          </mxGeometry>
        </mxCell>
        <mxCell id="y8FSoUIwy3ZtjOL5Xxnj-5" value="Gestionar Perfil" style="ellipse;whiteSpace=wrap;html=1;" parent="WIyWlLk6GJQsqaUBKTNV-1" vertex="1">
          <mxGeometry x="369" y="605" width="110" height="70" as="geometry" />
        </mxCell>
        <mxCell id="y8FSoUIwy3ZtjOL5Xxnj-6" value="" style="endArrow=classic;html=1;rounded=0;entryX=0;entryY=0.5;entryDx=0;entryDy=0;" parent="WIyWlLk6GJQsqaUBKTNV-1" target="y8FSoUIwy3ZtjOL5Xxnj-5" edge="1">
          <mxGeometry width="50" height="50" relative="1" as="geometry">
            <mxPoint x="209" y="565" as="sourcePoint" />
            <mxPoint x="489" y="605" as="targetPoint" />
            <Array as="points" />
          </mxGeometry>
        </mxCell>
        <mxCell id="y8FSoUIwy3ZtjOL5Xxnj-7" value="Crear Publicación" style="ellipse;whiteSpace=wrap;html=1;" parent="WIyWlLk6GJQsqaUBKTNV-1" vertex="1">
          <mxGeometry x="349" y="320" width="110" height="80" as="geometry" />
        </mxCell>
        <mxCell id="BP5pdJHNpVIhgN1eafTa-16" value="Eliminar Amigos" style="ellipse;whiteSpace=wrap;html=1;" parent="WIyWlLk6GJQsqaUBKTNV-1" vertex="1">
          <mxGeometry x="480" y="750" width="110" height="70" as="geometry" />
        </mxCell>
        <mxCell id="BP5pdJHNpVIhgN1eafTa-17" value="&amp;lt;&amp;lt;extends&amp;gt;&amp;gt;" style="html=1;verticalAlign=bottom;endArrow=open;dashed=1;endSize=8;curved=0;rounded=0;entryX=1;entryY=1;entryDx=0;entryDy=0;exitX=0.5;exitY=0;exitDx=0;exitDy=0;" parent="WIyWlLk6GJQsqaUBKTNV-1" source="BP5pdJHNpVIhgN1eafTa-16" target="y8FSoUIwy3ZtjOL5Xxnj-5" edge="1">
          <mxGeometry relative="1" as="geometry">
            <mxPoint x="189" y="985" as="sourcePoint" />
            <mxPoint x="304" y="805" as="targetPoint" />
            <Array as="points" />
          </mxGeometry>
        </mxCell>
        <mxCell id="QDbhRXI9yqIW19a753yx-1" value="" style="endArrow=classic;html=1;rounded=0;entryX=0;entryY=0.5;entryDx=0;entryDy=0;" parent="WIyWlLk6GJQsqaUBKTNV-1" target="QDbhRXI9yqIW19a753yx-0" edge="1">
          <mxGeometry width="50" height="50" relative="1" as="geometry">
            <mxPoint x="209" y="560" as="sourcePoint" />
            <mxPoint x="353" y="560" as="targetPoint" />
          </mxGeometry>
        </mxCell>
        <mxCell id="QDbhRXI9yqIW19a753yx-0" value="" style="ellipse;whiteSpace=wrap;html=1;aspect=fixed;" parent="WIyWlLk6GJQsqaUBKTNV-1" vertex="1">
          <mxGeometry x="199" y="550" width="20" height="20" as="geometry" />
        </mxCell>
        <mxCell id="7RINz16O7kCzUExgoXn0-1" value="Borrar Publicación" style="ellipse;whiteSpace=wrap;html=1;" parent="WIyWlLk6GJQsqaUBKTNV-1" vertex="1">
          <mxGeometry x="199" y="695" width="110" height="80" as="geometry" />
        </mxCell>
        <mxCell id="7RINz16O7kCzUExgoXn0-2" value="Ver Contenido" style="ellipse;whiteSpace=wrap;html=1;" parent="WIyWlLk6GJQsqaUBKTNV-1" vertex="1">
          <mxGeometry x="359" y="485" width="110" height="80" as="geometry" />
        </mxCell>
        <mxCell id="7RINz16O7kCzUExgoXn0-4" value="Añadir Amigos" style="ellipse;whiteSpace=wrap;html=1;" parent="WIyWlLk6GJQsqaUBKTNV-1" vertex="1">
          <mxGeometry x="320" y="750" width="110" height="70" as="geometry" />
        </mxCell>
        <mxCell id="7RINz16O7kCzUExgoXn0-5" value="&amp;lt;&amp;lt;extends&amp;gt;&amp;gt;" style="html=1;verticalAlign=bottom;endArrow=open;dashed=1;endSize=8;curved=0;rounded=0;entryX=0.5;entryY=1;entryDx=0;entryDy=0;exitX=0.5;exitY=0;exitDx=0;exitDy=0;" parent="WIyWlLk6GJQsqaUBKTNV-1" source="7RINz16O7kCzUExgoXn0-4" target="y8FSoUIwy3ZtjOL5Xxnj-5" edge="1">
          <mxGeometry x="-0.0103" y="-1" relative="1" as="geometry">
            <mxPoint x="548" y="697" as="sourcePoint" />
            <mxPoint x="449" y="695" as="targetPoint" />
            <Array as="points" />
            <mxPoint as="offset" />
          </mxGeometry>
        </mxCell>
        <mxCell id="7RINz16O7kCzUExgoXn0-6" value="Buscar Cotenido por hashtag" style="ellipse;whiteSpace=wrap;html=1;" parent="WIyWlLk6GJQsqaUBKTNV-1" vertex="1">
          <mxGeometry x="590" y="490" width="110" height="80" as="geometry" />
        </mxCell>
        <mxCell id="7RINz16O7kCzUExgoXn0-7" value="&amp;lt;&amp;lt;extends&amp;gt;&amp;gt;" style="html=1;verticalAlign=bottom;endArrow=open;dashed=1;endSize=8;curved=0;rounded=0;entryX=1;entryY=0.5;entryDx=0;entryDy=0;exitX=0;exitY=0.5;exitDx=0;exitDy=0;" parent="WIyWlLk6GJQsqaUBKTNV-1" source="7RINz16O7kCzUExgoXn0-6" target="7RINz16O7kCzUExgoXn0-2" edge="1">
          <mxGeometry relative="1" as="geometry">
            <mxPoint x="589" y="660" as="sourcePoint" />
            <mxPoint x="490" y="658" as="targetPoint" />
            <Array as="points" />
          </mxGeometry>
        </mxCell>
        <mxCell id="7RINz16O7kCzUExgoXn0-8" value="Ver Contenido reciente" style="ellipse;whiteSpace=wrap;html=1;" parent="WIyWlLk6GJQsqaUBKTNV-1" vertex="1">
          <mxGeometry x="559" y="385" width="110" height="80" as="geometry" />
        </mxCell>
        <mxCell id="7RINz16O7kCzUExgoXn0-9" value="&amp;lt;&amp;lt;include&amp;gt;&amp;gt;" style="html=1;verticalAlign=bottom;endArrow=open;dashed=1;endSize=8;curved=0;rounded=0;entryX=0;entryY=0.5;entryDx=0;entryDy=0;exitX=1;exitY=0;exitDx=0;exitDy=0;" parent="WIyWlLk6GJQsqaUBKTNV-1" source="7RINz16O7kCzUExgoXn0-2" target="7RINz16O7kCzUExgoXn0-8" edge="1">
          <mxGeometry relative="1" as="geometry">
            <mxPoint x="649" y="565" as="sourcePoint" />
            <mxPoint x="479" y="535" as="targetPoint" />
            <Array as="points" />
          </mxGeometry>
        </mxCell>
        <mxCell id="7RINz16O7kCzUExgoXn0-10" value="&amp;lt;&amp;lt;extends&amp;gt;&amp;gt;" style="html=1;verticalAlign=bottom;endArrow=open;dashed=1;endSize=8;curved=0;rounded=0;entryX=0;entryY=1;entryDx=0;entryDy=0;exitX=0.5;exitY=0;exitDx=0;exitDy=0;" parent="WIyWlLk6GJQsqaUBKTNV-1" source="7RINz16O7kCzUExgoXn0-1" target="y8FSoUIwy3ZtjOL5Xxnj-5" edge="1">
          <mxGeometry x="-0.4758" y="-6" relative="1" as="geometry">
            <mxPoint x="539" y="760" as="sourcePoint" />
            <mxPoint x="434" y="685" as="targetPoint" />
            <Array as="points" />
            <mxPoint as="offset" />
          </mxGeometry>
        </mxCell>
        <mxCell id="B0wwqsWbUwboob3fZNsG-1" value="Cambiar nom usuari" style="ellipse;whiteSpace=wrap;html=1;" parent="WIyWlLk6GJQsqaUBKTNV-1" vertex="1">
          <mxGeometry x="580" y="650" width="110" height="70" as="geometry" />
        </mxCell>
        <mxCell id="B0wwqsWbUwboob3fZNsG-2" value="&amp;lt;&amp;lt;extends&amp;gt;&amp;gt;" style="html=1;verticalAlign=bottom;endArrow=open;dashed=1;endSize=8;curved=0;rounded=0;entryX=1;entryY=0.5;entryDx=0;entryDy=0;exitX=0;exitY=0.5;exitDx=0;exitDy=0;" parent="WIyWlLk6GJQsqaUBKTNV-1" source="B0wwqsWbUwboob3fZNsG-1" target="y8FSoUIwy3ZtjOL5Xxnj-5" edge="1">
          <mxGeometry relative="1" as="geometry">
            <mxPoint x="690" y="730" as="sourcePoint" />
            <mxPoint x="490" y="658" as="targetPoint" />
            <Array as="points" />
          </mxGeometry>
        </mxCell>
      </root>
    </mxGraphModel>
  </diagram>
</mxfile>
